<svg width="11" height="6" viewBox="0 0 11 6" fill="none" xmlns="http://www.w3.org/2000/svg">
<path d="M5.24443 0.187004C5.32494 0.187188 5.40459 0.20358 5.47864 0.235191C5.55268 0.266802 5.61961 0.312992 5.67543 0.371009L9.94243 4.74601C10.0575 4.86419 10.1218 5.02259 10.1218 5.18751C10.1218 5.35242 10.0575 5.51083 9.94243 5.62901C9.8865 5.68661 9.81958 5.73241 9.74564 5.76369C9.67169 5.79496 9.59222 5.81107 9.51193 5.81107C9.43164 5.81107 9.35218 5.79496 9.27823 5.76369C9.20428 5.73241 9.13736 5.68661 9.08144 5.62901L5.24443 1.69601L1.40744 5.629C1.3515 5.68677 1.28452 5.7327 1.21048 5.76406C1.13644 5.79543 1.05685 5.81158 0.97644 5.81158C0.896031 5.81158 0.816442 5.79543 0.742401 5.76406C0.668361 5.7327 0.601381 5.68677 0.545441 5.629C0.430884 5.51058 0.366837 5.35227 0.366837 5.18751C0.366837 5.02274 0.430884 4.86443 0.545441 4.74601L4.81343 0.371009C4.86925 0.312992 4.93618 0.266802 5.01022 0.235191C5.08427 0.20358 5.16392 0.187188 5.24443 0.187004Z" fill="#202225"/>
</svg>
