<svg width="11" height="6" viewBox="0 0 11 6" fill="none" xmlns="http://www.w3.org/2000/svg">
<path d="M5.48921 5.813C5.4087 5.81281 5.32905 5.79642 5.255 5.76481C5.18096 5.7332 5.11403 5.68701 5.05821 5.62899L0.791214 1.25399C0.67619 1.13581 0.611816 0.977408 0.611816 0.812492C0.611816 0.647577 0.67619 0.489175 0.791214 0.370995C0.84714 0.313387 0.914059 0.267586 0.988007 0.236313C1.06195 0.205039 1.14142 0.188927 1.22171 0.188927C1.302 0.188927 1.38147 0.205039 1.45541 0.236313C1.52936 0.267586 1.59628 0.313387 1.65221 0.370995L5.48921 4.30399L9.3262 0.370995C9.38214 0.313234 9.44912 0.267304 9.52316 0.235939C9.5972 0.204574 9.67679 0.188416 9.7572 0.188416C9.83761 0.188416 9.9172 0.204574 9.99124 0.235939C10.0653 0.267304 10.1323 0.313234 10.1882 0.370995C10.3028 0.489417 10.3668 0.647728 10.3668 0.812492C10.3668 0.977256 10.3028 1.13557 10.1882 1.25399L5.92021 5.62899C5.86439 5.68701 5.79746 5.7332 5.72342 5.76481C5.64937 5.79642 5.56972 5.81281 5.48921 5.813Z" fill="#202225"/>
</svg>
