<svg width="12" height="12" viewBox="0 0 12 12" fill="none" xmlns="http://www.w3.org/2000/svg">
<path d="M2.63697 5.15121C2.81445 5.31197 3.04552 5.40075 3.28498 5.4002H8.71796C8.86662 5.39917 9.01319 5.36501 9.14698 5.30021C9.24788 5.25328 9.33788 5.18582 9.41123 5.10214C9.48458 5.01846 9.53967 4.92039 9.57297 4.81421C9.60165 4.71483 9.60756 4.61026 9.59025 4.50829C9.57293 4.40631 9.53284 4.30955 9.47297 4.2252L6.75797 0.366204C6.67955 0.257904 6.5768 0.169532 6.45798 0.108204C6.31843 0.0367138 6.16376 -0.000316653 6.00696 0.000206305C5.85989 -0.0028819 5.71418 0.0287388 5.58161 0.0925029C5.44904 0.156267 5.33336 0.25038 5.24396 0.367207L2.52796 4.2272C2.44872 4.34127 2.40521 4.47633 2.40296 4.6152C2.40254 4.71591 2.42315 4.81559 2.46345 4.90789C2.50374 5.00018 2.56283 5.08305 2.63697 5.15121Z" fill="#9DA1A8"/>
<path d="M9.363 6.85022C9.18567 6.6891 8.95459 6.59995 8.71499 6.60022H3.28298C3.13435 6.60145 2.98785 6.63561 2.854 6.70022C2.75266 6.74667 2.66225 6.81396 2.58868 6.8977C2.5151 6.98144 2.46001 7.07975 2.427 7.18622C2.39861 7.28563 2.39285 7.39014 2.41015 7.49207C2.42746 7.594 2.46739 7.69075 2.527 7.77522L5.242 11.6342C5.32078 11.7422 5.42344 11.8305 5.54199 11.8922C5.68193 11.9635 5.83693 12.0002 5.99398 11.9992C6.14083 12.0024 6.28636 11.971 6.41876 11.9074C6.55116 11.8438 6.66669 11.7498 6.75598 11.6332L9.47198 7.77222C9.55103 7.65843 9.59453 7.52375 9.59698 7.38522C9.59769 7.28462 9.57724 7.18499 9.53692 7.09282C9.49661 7.00065 9.43736 6.91799 9.363 6.85022Z" fill="#9DA1A8"/>
</svg>
