<svg width="19" height="19" viewBox="0 0 19 19" fill="none" xmlns="http://www.w3.org/2000/svg">
<path d="M10.8789 8.99999L18.1729 1.70599C18.3549 1.51726 18.4555 1.26459 18.453 1.00239C18.4506 0.740193 18.3452 0.489452 18.1597 0.304173C17.9742 0.118894 17.7233 0.0139027 17.4611 0.0118116C17.1989 0.00972051 16.9463 0.110697 16.7579 0.292993L9.46486 7.58599L2.17086 0.292993C1.98153 0.115204 1.73046 0.0180469 1.47078 0.0220799C1.21109 0.026113 0.963163 0.13102 0.77945 0.314602C0.595738 0.498185 0.490656 0.746041 0.486439 1.00572C0.482222 1.26541 0.579201 1.51654 0.756857 1.70599L8.04986 8.99999L0.756857 16.294C0.659179 16.3857 0.580931 16.4961 0.526762 16.6187C0.472593 16.7413 0.443608 16.8734 0.441527 17.0074C0.439446 17.1414 0.464313 17.2744 0.51465 17.3986C0.564987 17.5228 0.639767 17.6356 0.73455 17.7303C0.829332 17.825 0.942183 17.8997 1.0664 17.95C1.19062 18.0002 1.32366 18.025 1.45764 18.0228C1.59162 18.0207 1.72379 17.9916 1.84631 17.9373C1.96883 17.8831 2.0792 17.8047 2.17086 17.707L9.46486 10.414L16.7579 17.707C16.9463 17.8893 17.1989 17.9903 17.4611 17.9882C17.7233 17.9861 17.9742 17.8811 18.1597 17.6958C18.3452 17.5105 18.4506 17.2598 18.453 16.9976C18.4555 16.7354 18.3549 16.4827 18.1729 16.294L10.8789 8.99999Z" fill="#9DA1A8"/>
</svg>
