<svg width="24" height="24" viewBox="0 0 24 24" fill="none" xmlns="http://www.w3.org/2000/svg">
<path d="M12 0C8.8174 0 5.76518 1.26433 3.51474 3.51477C1.2643 5.76521 0 8.8174 0 12C0 15.1826 1.2643 18.2348 3.51474 20.4852C5.76518 22.7357 8.8174 24 12 24C15.1826 24 18.2349 22.7357 20.4853 20.4852C22.7357 18.2348 24 15.1826 24 12C24 8.8174 22.7357 5.76521 20.4853 3.51477C18.2349 1.26433 15.1826 0 12 0ZM18 14.536C18.0003 14.9909 17.9109 15.4413 17.7369 15.8616C17.563 16.2818 17.3079 16.6637 16.9863 16.9854C16.6647 17.307 16.2828 17.562 15.8625 17.736C15.4423 17.9099 14.9918 17.9993 14.537 17.999H9.46301C9.00821 17.9992 8.55784 17.9097 8.13763 17.7357C7.71742 17.5617 7.3356 17.3066 7.01401 16.985C6.69241 16.6634 6.43732 16.2815 6.26334 15.8613C6.08935 15.4411 5.99987 14.9908 6 14.536V9.46399C6 8.54554 6.36484 7.6647 7.01428 7.01526C7.66372 6.36582 8.54457 6.00098 9.46301 6.00098H14.537C14.9918 6.00085 15.4422 6.0903 15.8624 6.26428C16.2826 6.43827 16.6644 6.69342 16.986 7.01501C17.3076 7.33661 17.5627 7.71846 17.7367 8.13867C17.9106 8.55888 18.0001 9.00918 18 9.46399V14.536Z" fill="#C32AA3"/>
<path d="M14.595 7.13794H9.40305C8.79305 7.13794 8.20804 7.38031 7.7767 7.81165C7.34537 8.24298 7.10303 8.82799 7.10303 9.43799V14.63C7.10303 15.24 7.34537 15.825 7.7767 16.2563C8.20804 16.6877 8.79305 16.9301 9.40305 16.9301H14.595C14.8971 16.9301 15.1962 16.8705 15.4752 16.7549C15.7543 16.6393 16.0078 16.4699 16.2214 16.2563C16.435 16.0428 16.6044 15.7892 16.72 15.5101C16.8355 15.2311 16.895 14.932 16.895 14.63V9.43799C16.895 9.13595 16.8355 8.83691 16.72 8.55786C16.6044 8.27881 16.435 8.02522 16.2214 7.81165C16.0078 7.59807 15.7543 7.4287 15.4752 7.31311C15.1962 7.19752 14.8971 7.13794 14.595 7.13794V7.13794ZM11.995 15.146C11.1694 15.146 10.3776 14.8181 9.79382 14.2343C9.21002 13.6505 8.88205 12.8586 8.88205 12.033C8.88205 11.2073 9.21002 10.4156 9.79382 9.83179C10.3776 9.24799 11.1694 8.92004 11.995 8.92004C12.404 8.91991 12.8089 9.00024 13.1868 9.15662C13.5646 9.31299 13.908 9.54235 14.1973 9.83142C14.4865 10.1205 14.716 10.4637 14.8726 10.8414C15.0292 11.2192 15.1099 11.624 15.11 12.033C15.1098 12.8582 14.782 13.6496 14.1987 14.2333C13.6154 14.817 12.8242 15.1452 11.999 15.146H11.995ZM15.214 9.526C15.1187 9.52613 15.0244 9.50745 14.9363 9.47107C14.8482 9.43469 14.7682 9.3813 14.7007 9.31396C14.6333 9.24663 14.5798 9.16676 14.5433 9.07874C14.5068 8.99071 14.488 8.89632 14.488 8.80103C14.488 8.70569 14.5068 8.61128 14.5433 8.52319C14.5798 8.43511 14.6333 8.35501 14.7007 8.2876C14.7681 8.22018 14.8481 8.16673 14.9362 8.13025C15.0243 8.09376 15.1187 8.07495 15.214 8.07495C15.3093 8.07495 15.4037 8.09375 15.4917 8.13025C15.5797 8.16675 15.6597 8.22029 15.7271 8.28772C15.7944 8.35515 15.8478 8.43512 15.8841 8.52319C15.9205 8.61127 15.9392 8.70573 15.939 8.80103C15.9393 8.9927 15.8636 9.17659 15.7284 9.3125C15.5932 9.44841 15.4097 9.52521 15.218 9.526H15.214Z" fill="#C32AA3"/>
<path d="M11.9989 10.014C11.4636 10.0143 10.9503 10.2271 10.5719 10.6057C10.1935 10.9843 9.98096 11.4977 9.98096 12.033C9.98096 12.5682 10.1935 13.0815 10.572 13.46C10.9504 13.8384 11.4637 14.051 11.9989 14.051C12.264 14.0512 12.5266 13.9991 12.7715 13.8977C13.0165 13.7963 13.239 13.6477 13.4265 13.4603C13.614 13.2729 13.7628 13.0504 13.8642 12.8055C13.9657 12.5606 14.0179 12.2981 14.0179 12.033C14.0177 11.4976 13.8049 10.9842 13.4263 10.6056C13.0477 10.227 12.5343 10.0143 11.9989 10.014Z" fill="#C32AA3"/>
</svg>
