<svg width="40" height="22" viewBox="0 0 40 22" fill="none" xmlns="http://www.w3.org/2000/svg">
<path d="M37.5543 4.25401C35.7592 1.97106 33.1342 0.490604 30.2518 0.1356C27.3695 -0.219405 24.4637 0.57985 22.1683 2.35901C21.8071 2.64655 21.5741 3.06518 21.5202 3.52371C21.4662 3.98223 21.5957 4.44349 21.8803 4.80701L25.6023 9.67001C25.6023 9.67001 26.7103 8.76201 26.8763 8.68401C27.3339 8.33673 27.8641 8.09743 28.4273 7.98401C28.9631 7.9022 29.511 7.96327 30.0156 8.16104C30.5202 8.35881 30.9637 8.68629 31.3012 9.11037C31.6387 9.53445 31.8583 10.0401 31.9378 10.5762C32.0173 11.1124 31.9538 11.66 31.7538 12.1638C31.5539 12.6675 31.2245 13.1095 30.7989 13.4452C30.3734 13.7809 29.8667 13.9983 29.3303 14.0754C28.7938 14.1525 28.2465 14.0867 27.7436 13.8845C27.2407 13.6824 26.8001 13.351 26.4663 12.924L19.6873 4.25401C18.3532 2.53598 16.5398 1.25203 14.4762 0.564457C12.4126 -0.123118 10.1914 -0.183446 8.0935 0.391098C5.9956 0.965642 4.11512 2.14926 2.68979 3.79235C1.26445 5.43543 0.358242 7.4642 0.0857127 9.62222C-0.186817 11.7802 0.186568 13.9706 1.15867 15.9164C2.13077 17.8623 3.65794 19.4763 5.54714 20.5543C7.43634 21.6324 9.60275 22.1262 11.7725 21.9732C13.9423 21.8202 16.018 21.0274 17.7373 19.695C18.0985 19.4075 18.3315 18.9888 18.3854 18.5303C18.4393 18.0718 18.3099 17.6105 18.0253 17.247L14.2133 12.373C14.2133 12.373 13.1053 13.273 13.0063 13.348C12.5691 13.6896 12.0627 13.9315 11.5223 14.057C10.985 14.1597 10.4301 14.1173 9.9146 13.9344C9.39911 13.7514 8.94167 13.4344 8.58933 13.016C8.237 12.5976 8.00248 12.0929 7.90992 11.5538C7.81735 11.0147 7.87007 10.4606 8.06266 9.94865C8.25525 9.43668 8.58075 8.98525 9.00568 8.64081C9.43061 8.29637 9.93963 8.07135 10.4804 7.98889C11.0211 7.90644 11.5741 7.96953 12.0823 8.17167C12.5906 8.37381 13.0359 8.70771 13.3723 9.13901L20.2183 17.746C22.0647 19.8695 24.6546 21.2046 27.4553 21.4767C30.256 21.7489 33.0545 20.9374 35.2752 19.2091C37.4958 17.4809 38.9697 14.9673 39.3936 12.1856C39.8176 9.40377 39.1593 6.56528 37.5543 4.25401Z" fill="white"/>
</svg>
