<svg width="24" height="24" viewBox="0 0 24 24" fill="none" xmlns="http://www.w3.org/2000/svg">
<path d="M18.0339 11.7059C17.8217 11.7059 17.6182 11.7903 17.4682 11.9403C17.3182 12.0903 17.2339 12.2938 17.2339 12.506C17.2339 12.7182 17.3182 12.9216 17.4682 13.0717C17.6182 13.2217 17.8217 13.3059 18.0339 13.3059C18.246 13.3059 18.4495 13.2217 18.5996 13.0717C18.7496 12.9216 18.8339 12.7182 18.8339 12.506C18.8339 12.2938 18.7496 12.0903 18.5996 11.9403C18.4495 11.7903 18.246 11.7059 18.0339 11.7059V11.7059Z" fill="#02C639"/>
<path d="M13.2119 11.7059C13.1068 11.7059 13.0028 11.7266 12.9057 11.7668C12.8086 11.807 12.7205 11.866 12.6462 11.9403C12.5719 12.0146 12.513 12.1028 12.4727 12.1998C12.4325 12.2969 12.4119 12.4009 12.4119 12.506C12.4119 12.611 12.4325 12.7151 12.4727 12.8121C12.513 12.9092 12.5719 12.9974 12.6462 13.0717C12.7205 13.1459 12.8086 13.2048 12.9057 13.245C13.0028 13.2852 13.1068 13.3059 13.2119 13.3059C13.424 13.3059 13.6275 13.2217 13.7776 13.0717C13.9276 12.9216 14.0119 12.7182 14.0119 12.506C14.0119 12.2938 13.9276 12.0903 13.7776 11.9403C13.6275 11.7903 13.424 11.7059 13.2119 11.7059Z" fill="#02C639"/>
<path d="M6.04291 11.7059C5.83073 11.7059 5.62726 11.7903 5.47723 11.9403C5.3272 12.0903 5.24292 12.2938 5.24292 12.506C5.24292 12.7182 5.3272 12.9216 5.47723 13.0717C5.62726 13.2217 5.83073 13.3059 6.04291 13.3059C6.25508 13.3059 6.45858 13.2217 6.60861 13.0717C6.75864 12.9216 6.84293 12.7182 6.84293 12.506C6.84293 12.2938 6.75864 12.0903 6.60861 11.9403C6.45858 11.7903 6.25508 11.7059 6.04291 11.7059V11.7059Z" fill="#02C639"/>
<path d="M20.485 3.51489C19.3706 2.40052 18.0477 1.51655 16.5918 0.913452C15.1358 0.310357 13.5754 0 11.9995 0C10.4235 0 8.86305 0.310357 7.4071 0.913452C5.95116 1.51655 4.62826 2.40052 3.51395 3.51489C2.39958 4.6292 1.5156 5.95213 0.912506 7.40808C0.309411 8.86403 -0.000976562 10.4246 -0.000976562 12.0005C-0.000976562 13.5764 0.309411 15.1368 0.912506 16.5928C1.5156 18.0487 2.39958 19.3717 3.51395 20.486C4.62826 21.6003 5.95116 22.4843 7.4071 23.0874C8.86305 23.6905 10.4235 24.0009 11.9995 24.0009C13.5754 24.0009 15.1358 23.6905 16.5918 23.0874C18.0477 22.4843 19.3706 21.6003 20.485 20.486C21.5993 19.3717 22.4833 18.0487 23.0864 16.5928C23.6895 15.1368 23.9999 13.5764 23.9999 12.0005C23.9999 10.4246 23.6895 8.86403 23.0864 7.40808C22.4833 5.95213 21.5993 4.6292 20.485 3.51489V3.51489ZM6.31595 14.4149C6.10864 14.4235 5.90263 14.3781 5.71808 14.2833C5.53352 14.1885 5.37671 14.0474 5.26294 13.8739V14.283H3.99896V9.06799H5.24896V11.0549C5.53267 10.7658 5.91195 10.5898 6.31595 10.5599C8.01595 10.5599 8.07895 12.465 8.07895 12.465C8.09323 12.7094 8.05877 12.9542 7.9776 13.1852C7.89643 13.4162 7.77016 13.6286 7.60611 13.8103C7.44206 13.992 7.24352 14.1393 7.02203 14.2437C6.80055 14.348 6.56053 14.4073 6.31595 14.418V14.4149ZM10.2599 10.9099V14.283H9.05194V11.1959C9.05194 10.1309 8.48294 10.157 8.48294 10.157V8.9469C10.3119 8.9499 10.2599 10.913 10.2599 10.913V10.9099ZM15.327 12.5099C15.327 14.4099 13.2109 14.418 13.2109 14.418C12.9459 14.4462 12.6779 14.4176 12.4249 14.334C12.1718 14.2503 11.9396 14.1136 11.7436 13.933C11.5477 13.7524 11.3925 13.5319 11.2886 13.2865C11.1847 13.0411 11.1343 12.7763 11.141 12.5099C11.141 10.5799 13.2109 10.58 13.2109 10.58C13.4805 10.549 13.7536 10.5762 14.0118 10.6597C14.27 10.7431 14.5073 10.881 14.7078 11.0638C14.9083 11.2467 15.0673 11.4703 15.1741 11.7197C15.2809 11.9692 15.333 12.2386 15.327 12.5099V12.5099ZM19.999 14.2389C20.0179 14.4898 19.9846 14.7419 19.9011 14.9792C19.8175 15.2166 19.6856 15.434 19.5137 15.6177C19.3417 15.8014 19.1335 15.9474 18.9022 16.0464C18.6709 16.1454 18.4216 16.1954 18.17 16.193H17.6809V15.085H17.981C18.868 15.085 18.7809 14.1689 18.7809 14.1689V13.877C18.6425 14.0308 18.4727 14.1531 18.2829 14.2356C18.0931 14.3181 17.8878 14.3588 17.6809 14.355C15.9399 14.355 15.96 12.4969 15.96 12.4969C15.9321 12.251 15.9575 12.0019 16.0346 11.7666C16.1116 11.5313 16.2384 11.3154 16.4064 11.1335C16.5743 10.9517 16.7794 10.808 17.0078 10.7125C17.2362 10.617 17.4825 10.5718 17.7299 10.58C17.9295 10.5781 18.127 10.6198 18.3087 10.7021C18.4904 10.7845 18.6519 10.9056 18.782 11.0569V10.7019H19.999V14.2389Z" fill="#02C639"/>
</svg>
