<svg width="19" height="18" viewBox="0 0 19 18" fill="none" xmlns="http://www.w3.org/2000/svg">
<path d="M17.9676 6.91401C17.9286 6.79416 17.857 6.68757 17.7607 6.60629C17.6644 6.52501 17.5472 6.47226 17.4226 6.45401L12.0226 5.66501L9.60757 0.777012C9.54604 0.670935 9.45772 0.582883 9.35145 0.521675C9.24519 0.460468 9.12471 0.428253 9.00207 0.428253C8.87944 0.428253 8.75896 0.460468 8.65269 0.521675C8.54643 0.582883 8.45811 0.670935 8.39657 0.777012L5.98157 5.66501L0.581565 6.45401C0.456875 6.47226 0.33977 6.52501 0.243468 6.60629C0.147166 6.68757 0.0755041 6.79416 0.0365667 6.91401C-0.00213441 7.03376 -0.00653444 7.16196 0.0238638 7.28408C0.054262 7.4062 0.118249 7.51738 0.208571 7.60501L4.11656 11.405L3.19357 16.777C3.1725 16.9011 3.18641 17.0285 3.23375 17.1451C3.28109 17.2617 3.35997 17.3628 3.46156 17.437C3.5636 17.5107 3.68414 17.5546 3.80969 17.5638C3.93525 17.573 4.06088 17.5471 4.17256 17.489L9.00456 14.952L13.8356 17.489C13.9321 17.5398 14.0395 17.5663 14.1486 17.566C14.2922 17.5662 14.4321 17.521 14.5486 17.437C14.6502 17.3628 14.7291 17.2617 14.7764 17.1451C14.8237 17.0285 14.8376 16.9011 14.8166 16.777L13.8936 11.405L17.8016 7.60501C17.8909 7.51673 17.9537 7.40526 17.983 7.28317C18.0124 7.16108 18.007 7.03322 17.9676 6.91401Z" fill="#E1E3E9"/>
</svg>
